<svg xmlns="http://www.w3.org/2000/svg" xmlns:xlink="http://www.w3.org/1999/xlink" width="389px" height="249px" viewBox="0 0 389 249"><title>Microsoft PowerApps Essentials: The purpose and benefits </title><desc>Created with Sketch.</desc><defs><path d="M0.0318029898,19.9936861 C0.0318029898,30.8659153 8.86600632,39.711005 19.7248542,39.711005 C30.583702,39.711005 39.4165654,30.8659153 39.4165654,19.9936861 C39.4165654,9.12145686 30.583702,0.277708717 19.7248542,0.277708717 C8.86600632,0.277708717 0.0318029898,9.12145686 0.0318029898,19.9936861 M5.2535367,19.9936861 C5.2535367,12.0058711 11.7455305,5.50587718 19.7248542,5.50587718 C27.7041778,5.50587718 34.1948317,12.0058711 34.1948317,19.9936861 C34.1948317,27.9828426 27.7041778,34.4828365 19.7248542,34.4828365 C11.7455305,34.4828365 5.2535367,27.9828426 5.2535367,19.9936861" id="path-1"></path><path d="M0.120238819,19.9936861 C0.120238819,30.8659153 8.95578209,39.711005 19.81329,39.711005 C30.6721378,39.711005 39.5050012,30.8659153 39.5050012,19.9936861 C39.5050012,9.12145686 30.6721378,0.277708717 19.81329,0.277708717 C8.95578209,0.277708717 0.120238819,9.12145686 0.120238819,19.9936861 M5.34197253,19.9936861 C5.34197253,12.0058711 11.8339663,5.50587718 19.81329,5.50587718 C27.7939536,5.50587718 34.2846074,12.0058711 34.2846074,19.9936861 C34.2846074,27.9828426 27.7939536,34.4828365 19.81329,34.4828365 C11.8339663,34.4828365 5.34197253,27.9828426 5.34197253,19.9936861" id="path-3"></path><path d="M42.2468674,31.2049811 L2.56061923,31.2049811 C1.1979035,31.2049811 0.158112543,29.984136 0.372502431,28.6371817 L4.51290715,2.57683463 C4.71791748,1.26744474 5.94529959,0.20759021 7.25173797,0.20759021 L46.6927777,0.20759021 C48.000556,0.20759021 48.8929539,1.26744474 48.6866037,2.57683463 L44.4349842,29.3334658" id="path-5"></path></defs><g id="Microsoft-PowerApps-Essentials:-The-purpose-and-benefits-" stroke="none" stroke-width="1" fill="none" fill-rule="evenodd"><g id="Group-Copy-4" transform="translate(18.000000, 18.000000)"><polygon id="Fill-4" fill="#5F6385" points="180.673961 203.642433 201.209832 203.642433 201.209832 175.754844 180.673961 175.754844"></polygon><path d="M229.283518,209.851303 C222.657531,204.60301 207.986563,200.95255 190.942567,200.95255 C173.895891,200.95255 159.227602,204.60301 152.600275,209.851303 L229.283518,209.851303 Z" id="Fill-9" fill="#5F6385"></path><path d="M290.242737,177.714769 L91.6399842,177.714769 C89.0525662,177.714769 86.9515453,175.613843 86.9515453,173.020553 L86.9515453,42.9696948 C86.9515453,40.3777468 89.0525662,38.2754784 91.6399842,38.2754784 L290.242737,38.2754784 C292.832835,38.2754784 294.931176,40.3777468 294.931176,42.9696948 L294.931176,173.020553 C294.931176,175.613843 292.832835,177.714769 290.242737,177.714769" id="Fill-25" fill="#8E90A8"></path><path d="M94.761233,169.874663 L287.12256,169.874663 L287.12256,52.7717721 C287.12256,49.0958094 284.142604,46.1158529 280.466641,46.1158529 L101.417152,46.1158529 C97.7411895,46.1158529 94.761233,49.0958094 94.761233,52.7717721 L94.761233,169.874663 Z" id="Fill-26" fill="#7B68A0"></path><path d="M287.12256,46.1158529 L260.310425,46.1158529 C231.442826,71.5201634 203.231797,118.016921 190.941897,118.016921 C174.034574,118.016921 166.48805,93.2780377 140.4035,93.2780377 C125.151,93.2780377 109.325006,111.282149 94.761233,126.275736 L94.761233,169.874663 L287.12256,169.874663 L287.12256,46.1158529 Z" id="Fill-27" fill="#B59CE6"></path><path d="M94.6022727,59.277481 L286.9636,59.277481 L286.9636,50.2579374 C286.9636,47.9958065 285.12978,46.1619871 282.86765,46.1619871 L98.6982231,46.1619871 C96.4360922,46.1619871 94.6022727,47.9958065 94.6022727,50.2579374 L94.6022727,59.277481 Z" id="Fill-30" fill="#543554"></path><path d="M310.394181,193.009409 L311.203502,201.397018 C311.203502,201.397018 297.821554,207.279881 297.766616,208.96894 C297.713019,210.656658 320.833628,209.404956 320.833628,209.404956 C320.833628,209.404956 320.833628,204.56719 318.766106,201.430557 L317.791972,193.009409 L310.394181,193.009409 Z" id="Fill-38" fill="#DBAE8A"></path><path d="M297.766884,208.96827 C297.713287,210.657329 320.833896,209.404286 320.833896,209.404286 C320.833896,209.404286 320.833896,204.567861 318.766374,201.429887 L311.20377,201.397688 C311.20377,201.397688 297.821822,207.27921 297.766884,208.96827" id="Fill-39" fill="#0A2335"></path><path d="M334.045941,193.009409 L334.856603,201.397018 C334.856603,201.397018 323.68555,207.279881 323.631952,208.96894 C323.577015,210.656658 344.485389,209.404956 344.485389,209.404956 C344.485389,209.404956 344.485389,204.56719 342.419206,201.430557 L341.443732,193.009409 L334.045941,193.009409 Z" id="Fill-40" fill="#DBAE8A"></path><path d="M323.212552,208.96827 C323.157615,210.657329 344.485389,209.404286 344.485389,209.404286 C344.485389,209.404286 344.485389,204.567861 342.419206,201.429887 L334.856603,201.397688 C334.856603,201.397688 323.266149,207.27921 323.212552,208.96827" id="Fill-41" fill="#0A2335"></path><path d="M359.790024,26.5162599 C359.790024,41.1498915 347.93231,53.0140931 333.304103,53.0140931 C318.675895,53.0140931 306.818182,41.1498915 306.818182,26.5162599 C306.818182,11.8814734 318.675895,0.01842677 333.304103,0.01842677 C347.93231,0.01842677 359.790024,11.8814734 359.790024,26.5162599" id="Fill-31-Copy" fill="#517289"></path><path d="M340.629184,86.1874767 C340.413455,94.4489757 338.887267,103.082095 339.105676,110.925018 C339.322746,118.769283 341.021786,132.49507 339.084237,144.260797 C339.084237,144.260797 342.586832,180.209989 341.717213,193.934434 L331.489476,193.934434 C331.489476,193.934434 321.359553,147.746242 321.419851,128.354929 C321.478808,108.964958 321.419851,86.1874767 321.419851,86.1874767 L340.629184,86.1874767 Z" id="Fill-42" fill="#C78E00"></path><path d="M337.153656,86.1874767 C337.153656,86.1874767 337.153656,102.265067 319.521428,148.018585 C319.521428,148.018585 321.479076,176.450859 320.663054,193.934434 L310.054775,193.934434 C310.054775,193.934434 305.446732,158.289783 306.465084,145.240156 C308.095787,124.324799 317.725913,86.1874767 317.725913,86.1874767 L337.153656,86.1874767 Z" id="Fill-47" fill="#D99B00"></path><path d="M313.971678,26.0773578 L314.787699,35.0230666 L316.664951,34.4113025 C316.664951,34.4113025 317.806577,38.9056223 318.867807,39.2316282 C319.929037,39.5576341 323.396793,37.6378216 323.396793,37.6378216 L325.028836,42.8673317 L333.556194,40.1304921 L332.087623,36.0856043 L327.845383,22.7690017 L313.971678,26.0773578 Z" id="Fill-50" fill="#DBAE8A"></path><path d="M322.839648,41.423783 C322.839648,41.423783 328.171256,40.8254347 336.113061,37.7746636 L336.548541,39.8447339 C336.548541,39.8447339 340.573711,47.8513311 341.553205,58.962363 C342.532699,70.0733949 346.123729,88.047991 341.553205,88.047991 L318.868075,88.047991 C314.624495,88.047991 315.441856,85.1072301 316.583483,77.9176599 C317.726449,70.7280898 318.232945,49.8516388 322.948182,44.0935431 L322.839648,41.423783 Z" id="Fill-51" fill="#79ABD0"></path><polygon id="Fill-52" fill="#FFFFFF" points="321.977264 71.6808856 298.721321 71.6808856 281.479014 38.6724543 304.736297 38.6724543"></polygon><path d="M286.36295,42.8676 L302.192963,42.8676" id="Stroke-53" stroke="#B8B8B8" stroke-width="0.712383232"></path><path d="M288.596625,47.143241 L304.426638,47.143241" id="Stroke-54" stroke="#B8B8B8" stroke-width="0.712383232"></path><path d="M290.828959,51.4188819 L306.660313,51.4188819" id="Stroke-55" stroke="#B8B8B8" stroke-width="0.712383232"></path><path d="M293.062634,55.6945229 L308.892647,55.6945229" id="Stroke-56" stroke="#B8B8B8" stroke-width="0.712383232"></path><path d="M295.296309,59.9701639 L311.126322,59.9701639" id="Stroke-57" stroke="#B8B8B8" stroke-width="0.712383232"></path><path d="M317.970585,26.1186787 C317.970585,26.1186787 307.584735,32.2644933 306.62802,23.4220868 C305.892395,16.641701 313.237928,14.5984625 315.359048,17.4573865 C315.359048,17.4573865 316.338542,13.128082 322.53977,12.5565655 C328.742337,11.9837074 330.210908,16.9677069 330.292644,17.4573865 C330.292644,17.4573865 334.209279,18.1120815 334.943565,21.7880326 C335.67785,25.4653253 334.209279,27.0980379 334.209279,27.0980379 C334.209279,27.0980379 335.841322,32.2457111 332.086819,36.0866776 C332.086819,36.0866776 326.78335,35.5138195 324.498757,32.2457111 C324.498757,32.2457111 326.1308,26.6901952 322.866714,26.2823524 C319.602628,25.8731681 320.862169,29.7946298 320.862169,29.7946298 C320.862169,29.7946298 317.970585,28.4060862 317.970585,26.1186787" id="Fill-58" fill="#613E1F"></path><path d="M292.469846,59.1670893 L291.246484,57.614872 C291.246484,57.614872 291.491692,51.7320086 290.674331,50.8331446 C289.858309,49.9342807 289.899847,54.7935124 289.899847,54.7935124 L287.178436,49.5827846 C287.178436,49.5827846 283.208203,56.716008 287.328508,59.6165213 C291.448814,62.5170346 292.795451,64.8446898 292.795451,64.8446898 L292.469846,59.1670893 Z" id="Fill-59" fill="#DBAE8A"></path><path d="M330.452632,47.2054907 C332.642089,48.826129 333.364315,51.7722562 332.170431,54.2206543 C328.024667,62.7303471 318.284666,81.0041173 311.106625,81.0041173 C301.748506,81.0041173 289.453246,62.2674992 289.453246,62.2674992 L292.391728,58.3460375 L309.323169,67.7197129 L322.44785,48.552445 C324.254085,45.9162246 327.885314,45.3044604 330.452632,47.2054907" id="Fill-60" fill="#6490B0"></path><path d="M298.714219,156.695574 L247.587591,156.695574 C246.593358,156.695574 245.786716,155.887938 245.786716,154.892479 L245.786716,146.067513 C245.786716,145.070713 246.593358,144.264419 247.587591,144.264419 L298.714219,144.264419 C299.708453,144.264419 300.515094,145.070713 300.515094,146.067513 L300.515094,154.892479 C300.515094,155.887938 299.708453,156.695574 298.714219,156.695574" id="Fill-67" fill="#FFFFFF"></path><path d="M253.457318,150.480265 C253.457318,151.037024 253.007099,151.487797 252.451025,151.487797 C251.894952,151.487797 251.444733,151.037024 251.444733,150.480265 C251.444733,149.923506 251.894952,149.472732 252.451025,149.472732 C253.007099,149.472732 253.457318,149.923506 253.457318,150.480265" id="Fill-68" fill="#543554"></path><path d="M258.348623,150.480265 C258.348623,151.037024 257.898405,151.487797 257.342331,151.487797 C256.786257,151.487797 256.336038,151.037024 256.336038,150.480265 C256.336038,149.923506 256.786257,149.472732 257.342331,149.472732 C257.898405,149.472732 258.348623,149.923506 258.348623,150.480265" id="Fill-69" fill="#543554"></path><path d="M263.239929,150.480265 C263.239929,151.037024 262.78971,151.487797 262.233636,151.487797 C261.677562,151.487797 261.227344,151.037024 261.227344,150.480265 C261.227344,149.923506 261.677562,149.472732 262.233636,149.472732 C262.78971,149.472732 263.239929,149.923506 263.239929,150.480265" id="Fill-70" fill="#543554"></path><path d="M295.216448,151.253153 L279.70668,151.253153 C279.27924,151.253153 278.934876,150.907024 278.934876,150.480399 C278.934876,150.052432 279.27924,149.707644 279.70668,149.707644 L295.216448,149.707644 C295.642548,149.707644 295.988252,150.052432 295.988252,150.480399 C295.988252,150.907024 295.642548,151.253153 295.216448,151.253153" id="Fill-71" fill="#543554"></path><path d="M298.714219,177.935595 L247.587591,177.935595 C246.593358,177.935595 245.786716,177.127959 245.786716,176.132501 L245.786716,167.307535 C245.786716,166.310735 246.593358,165.503099 247.587591,165.503099 L298.714219,165.503099 C299.708453,165.503099 300.515094,166.310735 300.515094,167.307535 L300.515094,176.132501 C300.515094,177.127959 299.708453,177.935595 298.714219,177.935595" id="Fill-72" fill="#FFFFFF"></path><path d="M253.457318,171.719615 C253.457318,172.276374 253.007099,172.727148 252.451025,172.727148 C251.894952,172.727148 251.444733,172.276374 251.444733,171.719615 C251.444733,171.162856 251.894952,170.712083 252.451025,170.712083 C253.007099,170.712083 253.457318,171.162856 253.457318,171.719615" id="Fill-73" fill="#543554"></path><path d="M258.348623,171.719615 C258.348623,172.276374 257.898405,172.727148 257.342331,172.727148 C256.786257,172.727148 256.336038,172.276374 256.336038,171.719615 C256.336038,171.162856 256.786257,170.712083 257.342331,170.712083 C257.898405,170.712083 258.348623,171.162856 258.348623,171.719615" id="Fill-74" fill="#543554"></path><path d="M263.239929,171.719615 C263.239929,172.276374 262.78971,172.727148 262.233636,172.727148 C261.677562,172.727148 261.227344,172.276374 261.227344,171.719615 C261.227344,171.162856 261.677562,170.712083 262.233636,170.712083 C262.78971,170.712083 263.239929,171.162856 263.239929,171.719615" id="Fill-75" fill="#543554"></path><path d="M295.216448,172.492638 L279.70668,172.492638 C279.27924,172.492638 278.934876,172.146508 278.934876,171.719883 C278.934876,171.291917 279.27924,170.947129 279.70668,170.947129 L295.216448,170.947129 C295.642548,170.947129 295.988252,171.291917 295.988252,171.719883 C295.988252,172.146508 295.642548,172.492638 295.216448,172.492638" id="Fill-76" fill="#543554"></path><path d="M298.714219,199.174945 L247.587591,199.174945 C246.593358,199.174945 245.786716,198.367309 245.786716,197.371851 L245.786716,188.546885 C245.786716,187.550085 246.593358,186.743791 247.587591,186.743791 L298.714219,186.743791 C299.708453,186.743791 300.515094,187.550085 300.515094,188.546885 L300.515094,197.371851 C300.515094,198.367309 299.708453,199.174945 298.714219,199.174945" id="Fill-77" fill="#FFFFFF"></path><path d="M253.457318,192.959636 C253.457318,193.516396 253.007099,193.967169 252.451025,193.967169 C251.894952,193.967169 251.444733,193.516396 251.444733,192.959636 C251.444733,192.402877 251.894952,191.952104 252.451025,191.952104 C253.007099,191.952104 253.457318,192.402877 253.457318,192.959636" id="Fill-78" fill="#543554"></path><path d="M258.348623,192.959636 C258.348623,193.516396 257.898405,193.967169 257.342331,193.967169 C256.786257,193.967169 256.336038,193.516396 256.336038,192.959636 C256.336038,192.402877 256.786257,191.952104 257.342331,191.952104 C257.898405,191.952104 258.348623,192.402877 258.348623,192.959636" id="Fill-79" fill="#543554"></path><path d="M263.239929,192.959636 C263.239929,193.516396 262.78971,193.967169 262.233636,193.967169 C261.677562,193.967169 261.227344,193.516396 261.227344,192.959636 C261.227344,192.402877 261.677562,191.952104 262.233636,191.952104 C262.78971,191.952104 263.239929,192.402877 263.239929,192.959636" id="Fill-80" fill="#543554"></path><path d="M295.216448,193.731989 L279.70668,193.731989 C279.27924,193.731989 278.934876,193.385859 278.934876,192.959234 C278.934876,192.532609 279.27924,192.186479 279.70668,192.186479 L295.216448,192.186479 C295.642548,192.186479 295.988252,192.532609 295.988252,192.959234 C295.988252,193.385859 295.642548,193.731989 295.216448,193.731989" id="Fill-81" fill="#543554"></path><path d="M273.150771,163.898023 C272.74879,163.898023 272.423185,163.572017 272.423185,163.169541 L272.423185,159.030742 C272.423185,158.628265 272.74879,158.302259 273.150771,158.302259 C273.552752,158.302259 273.878357,158.628265 273.878357,159.030742 L273.878357,163.169541 C273.878357,163.572017 273.552752,163.898023 273.150771,163.898023" id="Fill-82" fill="#543554"></path><path d="M273.150771,185.137508 C272.74879,185.137508 272.423185,184.811502 272.423185,184.409025 L272.423185,180.270226 C272.423185,179.86775 272.74879,179.541744 273.150771,179.541744 C273.552752,179.541744 273.878357,179.86775 273.878357,180.270226 L273.878357,184.409025 C273.878357,184.811502 273.552752,185.137508 273.150771,185.137508" id="Fill-83" fill="#543554"></path><path d="M210.507386,69.877523 L210.507386,102.774603" id="Stroke-95" stroke="#F2F2F2" stroke-width="0.846542032" stroke-dasharray="1.535981318529914,2.559968864216524"></path><path d="M129.252814,78.4601981 L129.252814,97.139128" id="Stroke-97" stroke="#F2F2F2" stroke-width="0.846542032" stroke-dasharray="1.535981318529914,2.559968864216524"></path><g id="Group-102" transform="translate(205.341213, 113.927760)"><mask id="mask-2" fill="white"><use xlink:href="#path-1"></use></mask><g id="Clip-101"></g><path d="M0.0318029898,19.9936861 C0.0318029898,30.8659153 8.86600632,39.711005 19.7248542,39.711005 C30.583702,39.711005 39.4165654,30.8659153 39.4165654,19.9936861 C39.4165654,9.12145686 30.583702,0.277708717 19.7248542,0.277708717 C8.86600632,0.277708717 0.0318029898,9.12145686 0.0318029898,19.9936861 M5.2535367,19.9936861 C5.2535367,12.0058711 11.7455305,5.50587718 19.7248542,5.50587718 C27.7041778,5.50587718 34.1948317,12.0058711 34.1948317,19.9936861 C34.1948317,27.9828426 27.7041778,34.4828365 19.7248542,34.4828365 C11.7455305,34.4828365 5.2535367,27.9828426 5.2535367,19.9936861" id="Fill-100" fill="#DF4D9C" mask="url(#mask-2)"></path></g><g id="Group-107" transform="translate(224.824988, 113.927760)" fill="#FFFFFF"><path d="M14.7109228,19.9942227 C14.7109228,24.9876133 12.1757623,29.397413 8.32612391,32.0041185 L11.2445063,36.3387894 C16.4823192,32.7916307 19.9326565,26.7880244 19.9326565,19.9942227 C19.9326565,9.12199349 11.0997931,0.276903765 0.240945248,0.276903765 L0.240945248,5.50641382 C8.2202689,5.50641382 14.7109228,12.0050661 14.7109228,19.9942227" id="Fill-103"></path></g><g id="Group-110" transform="translate(137.004436, 113.927760)"><mask id="mask-4" fill="white"><use xlink:href="#path-3"></use></mask><g id="Clip-109"></g><path d="M0.120238819,19.9936861 C0.120238819,30.8659153 8.95578209,39.711005 19.81329,39.711005 C30.6721378,39.711005 39.5050012,30.8659153 39.5050012,19.9936861 C39.5050012,9.12145686 30.6721378,0.277708717 19.81329,0.277708717 C8.95578209,0.277708717 0.120238819,9.12145686 0.120238819,19.9936861 M5.34197253,19.9936861 C5.34197253,12.0058711 11.8339663,5.50587718 19.81329,5.50587718 C27.7939536,5.50587718 34.2846074,12.0058711 34.2846074,19.9936861 C34.2846074,27.9828426 27.7939536,34.4828365 19.81329,34.4828365 C11.8339663,34.4828365 5.34197253,27.9828426 5.34197253,19.9936861" id="Fill-108" fill="#DF4D9C" mask="url(#mask-4)"></path></g><g id="Group-115" transform="translate(166.715484, 119.806106)" fill="#FFFFFF"><path d="M5.53563442,26.3244619 C8.19406903,22.9637839 9.79529351,18.7257074 9.79529351,14.116011 C9.79529351,8.69062914 7.59377735,3.77102592 4.04026495,0.202401823 L0.344719251,3.89176884 C2.95491614,6.51323181 4.57221986,10.1288115 4.57221986,14.116011 C4.57221986,17.5035208 3.39575535,20.6173465 1.44346743,23.08721 L5.53563442,26.3244619 Z" id="Fill-111"></path></g><path d="M119.43236,53.0140931 C119.43236,53.9156402 118.702094,54.6481473 117.800317,54.6481473 C116.899879,54.6481473 116.169614,53.9156402 116.169614,53.0140931 C116.169614,52.1125459 116.899879,51.3800389 117.800317,51.3800389 C118.702094,51.3800389 119.43236,52.1125459 119.43236,53.0140931" id="Fill-118" fill="#956B95" transform="translate(117.800987, 53.014093) rotate(-90.000000) translate(-117.800987, -53.014093) "></path><path d="M112.555938,53.0147639 C112.555938,53.916311 111.825673,54.6474765 110.923895,54.6474765 C110.023458,54.6474765 109.293192,53.916311 109.293192,53.0147639 C109.293192,52.1118751 110.023458,51.3807097 110.923895,51.3807097 C111.825673,51.3807097 112.555938,52.1118751 112.555938,53.0147639" id="Fill-120" fill="#956B95" transform="translate(110.924565, 53.014093) rotate(-90.000000) translate(-110.924565, -53.014093) "></path><path d="M105.680321,53.0140931 C105.680321,53.9169818 104.950055,54.6481473 104.048278,54.6481473 C103.14784,54.6481473 102.417574,53.9169818 102.417574,53.0140931 C102.417574,52.1125459 103.14784,51.3800389 104.048278,51.3800389 C104.950055,51.3800389 105.680321,52.1125459 105.680321,53.0140931" id="Fill-122" fill="#956B95" transform="translate(104.048947, 53.014093) rotate(-90.000000) translate(-104.048947, -53.014093) "></path><path d="M73.8442835,156.254728 C73.8442835,156.254728 67.5345211,187.955111 67.7515909,193.184621 C67.9686607,198.412789 75.5862014,206.038375 75.911806,208.325783 C76.2387506,210.614532 59.5913758,201.898235 59.5913758,198.630127 C59.5913758,195.36336 62.3127874,192.20392 62.3127874,192.20392 C62.3127874,192.20392 57.9606727,165.623037 65.4669987,156.254728 L73.8442835,156.254728 Z" id="Fill-124" fill="#DBAE8A"></path><path d="M75.911806,208.32632 C75.6558781,206.531275 70.9205414,201.44934 68.7860221,196.816836 L66.1476866,198.11281 L62.1653944,192.609616 L61.792892,192.8833 C61.0050091,193.979378 59.5913758,196.268127 59.5913758,198.630663 C59.5913758,201.898772 76.2387506,210.613727 75.911806,208.32632" id="Fill-126" fill="#DF4D9C"></path><path d="M52.4261977,156.254728 C52.4261977,156.254728 46.1150954,187.955111 46.3335051,193.184621 C46.5505749,198.412789 54.1667756,206.038375 54.4937202,208.325783 C54.8193249,210.614532 38.17195,201.898235 38.17195,198.630127 C38.17195,195.36336 40.8933617,192.20392 40.8933617,192.20392 C40.8933617,192.20392 36.541247,165.623037 44.0475729,156.254728 L52.4261977,156.254728 Z" id="Fill-128" fill="#DBAE8A"></path><path d="M54.4937202,208.32632 C54.2377923,206.531275 49.5024556,201.44934 47.3665964,196.816836 L44.7282608,198.11281 L40.7459686,192.609616 L40.3748061,192.8833 C39.5869233,193.979378 38.17195,196.268127 38.17195,198.630663 C38.17195,201.898772 54.8193249,210.613727 54.4937202,208.32632" id="Fill-133" fill="#DF4D9C"></path><path d="M39.572586,202.376377 L39.572586,159.304694 L34.2905551,159.304694 L34.2905551,202.376377 C26.1839375,202.914354 19.5311513,205.88463 17.1098855,209.851705 L56.7519157,209.851705 C54.3319899,205.88463 47.6792036,202.914354 39.572586,202.376377" id="Fill-135" fill="#D99B00"></path><path d="M48.4390818,132.83315 C48.4390818,132.83315 72.7562549,137.95265 75.4776665,143.18216 C78.1963983,148.410328 75.4776665,154.293192 77.3267793,158.433332 L34.8936607,158.433332 L36.4158289,153.203822 C36.4158289,153.203822 15.5275541,149.827045 25.1014025,132.83315 L48.4390818,132.83315 Z" id="Fill-140" fill="#423F7F"></path><polygon id="Fill-142" fill="#0A2335" points="97.5643808 209.851303 102.569045 209.851303 102.569045 123.355099 97.5643808 123.355099"></polygon><polygon id="Fill-144" fill="#0A2335" points="10.9575656 209.851303 15.9608896 209.851303 15.9608896 123.355099 10.9575656 123.355099"></polygon><g id="Group-152" transform="translate(52.905627, 84.095224)"><mask id="mask-6" fill="white"><use xlink:href="#path-5"></use></mask><g id="Clip-151"></g></g><polygon id="Fill-153" fill="#0A2335" points="4.42939353 125.158193 109.097217 125.158193 109.097217 118.016921 4.42939353 118.016921"></polygon><polygon id="Fill-157" fill="#343947" points="71.8322344 118.016921 77.056648 118.016921 77.056648 109.866773 71.8322344 109.866773"></polygon><path d="M94.9744169,111.894449 L50.8007204,111.894449 L55.0818185,84.7527825 C55.2881688,83.4433926 56.5142109,82.3835381 57.8206493,82.3835381 L97.263029,82.3835381 C98.5694674,82.3835381 99.4618653,83.4433926 99.2541751,84.7527825 L94.9744169,111.894449 Z" id="Fill-158" fill="#8E90A8"></path><path d="M94.4523776,107.840171 L52.6034714,107.840171 L56.1878023,85.102937 C56.3124164,84.3167664 57.0493817,83.6795121 57.8345846,83.6795121 L96.8401449,83.6795121 C97.6253479,83.6795121 98.1613226,84.3167664 98.0380484,85.102937 L94.4523776,107.840171 Z" id="Fill-159" fill="#FFFFFF"></path><path d="M92.7840222,113.380124 L53.2773256,113.380124 C51.8623523,113.380124 50.7810233,112.119031 50.9967532,110.719755 L51.4416122,107.840707 L95.6139688,107.840707 L95.0632547,111.422747 C94.889063,112.548339 93.9216286,113.380124 92.7840222,113.380124" id="Fill-160" fill="#6C6F8C"></path><path d="M96.8404129,83.6799146 L57.8348526,83.6799146 C57.0496497,83.6799146 56.3126844,84.3171689 56.1880703,85.1033395 L56.0567565,85.9337824 L97.9070026,85.9337824 L98.0383164,85.1033395 C98.1602507,84.3171689 97.6256159,83.6799146 96.8404129,83.6799146" id="Fill-161" fill="#6582DB"></path><path d="M29.3345309,91.3311252 C26.7337135,91.3311252 22.653606,93.2066652 19.4712561,100.31574 C16.2889062,107.423473 11.3914372,116.819956 14.5737871,117.227798 C17.756137,117.635641 31.302898,117.227798 31.302898,117.227798 L31.302898,113.380124 L21.7558483,112.816657 L29.3345309,91.3311252 Z" id="Fill-172" fill="#DBAE8A"></path><path d="M56.0400238,75.2197892 C56.0400238,89.8534208 44.1823102,101.717622 29.5541028,101.717622 C14.9258954,101.717622 3.06818182,89.8534208 3.06818182,75.2197892 C3.06818182,60.5850027 14.9258954,48.721956 29.5541028,48.721956 C44.1823102,48.721956 56.0400238,60.5850027 56.0400238,75.2197892" id="Fill-31" fill="#517289"></path><path d="M47.3478373,73.9382416 C47.3478373,73.9382416 47.692201,76.5489719 47.8074356,77.5457717 C47.9226702,78.5452548 49.1875705,79.6198668 49.1875705,79.6198668 L48.0754229,80.4637257 C48.0754229,80.4637257 48.1142811,84.4562916 47.3478373,85.415527 C46.5813934,86.376104 42.4785069,85.7992212 42.4785069,85.7992212 L42.4785069,91.2889993 L33.0466918,91.2889993 L33.50763,73.4780769 L47.3478373,73.9382416 Z" id="Fill-173" fill="#DBAE8A"></path><path d="M29.9574675,91.2891334 L46.7334762,91.2891334 C48.9135534,91.2891334 50.8470822,92.6723107 51.5639484,94.7343315 C52.9320239,98.6772586 54.7020804,105.14103 53.417081,109.427403 C51.5773478,115.56651 47.7223496,119.542977 48.2757435,132.394048 C48.3373806,133.841622 47.2372925,135.077224 45.7915007,135.151012 C40.9489691,135.400547 30.6542346,135.793632 25.1015365,134.999412 C25.1015365,134.999412 21.7128364,114.454334 24.9166252,95.5191604 C25.3306657,93.0694207 27.4759045,91.2891334 29.9574675,91.2891334" id="Fill-174" fill="#DF4D9C"></path><path d="M66.8515554,153.638899 L62.9938773,152.957373 L67.0739849,129.833762 C67.1892194,129.188458 67.0190475,128.557912 66.6009872,128.056158 C66.1789071,127.553062 65.587995,127.278037 64.9327659,127.278037 L40.8514217,127.278037 L40.8514217,123.355233 L64.9327659,123.355233 C66.7390007,123.355233 68.4407204,124.149453 69.5997657,125.536655 C70.7614909,126.921174 71.2452081,128.736343 70.9330029,130.51663 L66.8515554,153.638899 Z" id="Fill-175" fill="#D99B00"></path><path d="M47.6998387,91.2891334 C53.0649456,91.2891334 64.3525732,113.920382 64.3525732,113.920382 L81.1620804,114.655572 C81.1620804,114.655572 88.5880101,112.939681 90.8726024,118.251028 L82.3037066,118.251028 C82.3037066,118.251028 67.2897147,122.172489 62.2301133,119.394061 C57.170512,116.615632 48.2076747,104.753311 46.250027,101.157855 C44.2910394,97.5637406 43.0462382,91.2891334 47.6998387,91.2891334" id="Fill-176" fill="#DBAE8A"></path><path d="M42.9381053,74.9366514 L48.689114,74.9366514 C48.689114,74.9366514 46.7716644,64.5715424 38.3367623,64.5715424 C31.4628865,64.5715424 29.1300565,69.1208674 28.3689724,71.4820623 C27.3224818,74.7313884 26.5211996,74.312813 25.8391717,76.6257107 C25.2268206,78.6984642 25.9155481,80.0802998 25.4559498,81.538606 C24.9950115,82.9969121 24.0758149,83.3806063 24.0758149,84.9931951 C24.0758149,86.6057839 24.2285677,88.3713137 23.5385002,89.6766788 L45.699715,89.6766788 C45.699715,89.6766788 43.6295126,86.7600665 43.9350182,85.7605834 C44.2418638,84.7637835 44.5487093,83.6113594 44.087771,82.4602769 C43.6295126,81.3091944 43.0158216,81.1549118 43.3213272,79.7730762 C43.6295126,78.3912405 43.7822654,76.6257107 42.9381053,74.9366514" id="Fill-177" fill="#053455"></path><path d="M45.5498136,143.981139 L40.7233612,107.174672 C40.3334396,104.196346 37.7996191,101.96931 34.7995006,101.96931 L2.31943254,101.96931 C0.917858646,101.96931 -0.162130416,103.20223 0.0201009892,104.593456 L6.28564547,152.386188 C6.92479533,157.250786 11.06654,160.889172 15.9666889,160.889172 L67.1040369,160.889172 C68.1987653,160.889172 69.0844635,159.999699 69.0844635,158.904964 L69.0844635,156.736957 C69.0844635,153.605691 66.550643,151.066065 63.4218906,151.066065 L53.617573,151.066065 C49.5334457,151.066065 46.0817685,148.035418 45.5498136,143.981139" id="Fill-178" fill="#D99B00"></path><path d="M40.4770433,107.174672 C40.0871217,104.196346 37.5533012,101.96931 34.5531827,101.96931 L28.6795178,101.96931 L34.5531827,147.024764 C35.0404548,156.267703 38.8636364,160.889172 46.0227273,160.889172 C53.1818182,160.889172 60.1268154,160.889172 66.8577191,160.889172 C67.9524474,160.889172 68.8381457,159.999699 68.8381457,158.904964 L68.8381457,156.736957 C68.8381457,153.605691 66.3043252,151.066065 63.1755727,151.066065 L53.3712552,151.066065 C49.2871278,151.066065 45.8354506,148.035418 45.3034957,143.981139 L40.4770433,107.174672 Z" id="Fill-178-Copy" fill="#AE7E06"></path><g id="Group-Copy" transform="translate(61.363636, 85.073515) rotate(-90.000000) translate(-61.363636, -85.073515) translate(60.852273, 82.513546)" fill="#FFFFFF"><path d="M0.994537815,4.57276326 C0.994537815,4.83792419 0.785890513,5.05336744 0.528239808,5.05336744 C0.270971942,5.05336744 0.0623246406,4.83792419 0.0623246406,4.57276326 C0.0623246406,4.30760234 0.270971942,4.09215909 0.528239808,4.09215909 C0.785890513,4.09215909 0.994537815,4.30760234 0.994537815,4.57276326" id="Fill-118"></path><path d="M0.994537815,2.54799129 C0.994537815,2.81315222 0.785890513,3.02820088 0.528239808,3.02820088 C0.270971942,3.02820088 0.0623246406,2.81315222 0.0623246406,2.54799129 C0.0623246406,2.28243578 0.270971942,2.06738712 0.528239808,2.06738712 C0.785890513,2.06738712 0.994537815,2.28243578 0.994537815,2.54799129" id="Fill-120"></path><path d="M0.994537815,0.523061489 C0.994537815,0.788616997 0.785890513,1.00366566 0.528239808,1.00366566 C0.270971942,1.00366566 0.0623246406,0.788616997 0.0623246406,0.523061489 C0.0623246406,0.257900565 0.270971942,0.0424573146 0.528239808,0.0424573146 C0.785890513,0.0424573146 0.994537815,0.257900565 0.994537815,0.523061489" id="Fill-122"></path></g><path d="M64.3284072,87.799663 L81.801849,87.799663 C83.4392468,87.799663 84.7666199,89.1270362 84.7666199,90.7644339 L84.7666199,101.124809 C84.7666199,102.762207 83.4392468,104.08958 81.801849,104.08958 L77.914395,104.08958 L76.0080693,105.851399 C75.7723358,106.069264 75.4111243,106.077061 75.1662084,105.869573 L73.8151227,104.72496 C73.3921987,104.366668 72.7645247,104.395178 72.3758245,104.790337 L70.6334601,106.561653 C70.2279443,106.973907 69.5666813,106.984574 69.1480797,106.585614 L66.5291598,104.08958 L64.3284072,104.08958 C62.6910095,104.08958 61.3636364,102.762207 61.3636364,101.124809 L61.3636364,90.7644339 C61.3636364,89.1270362 62.6910095,87.799663 64.3284072,87.799663 Z" id="Rectangle-38" fill="#FFFFFF" fill-rule="nonzero"></path><g id="Group-2" transform="translate(60.852273, 88.894350)" fill="#742774" fill-rule="nonzero"><path d="M18.2509872,13.7307084 L18.0080631,14.6332255 L18.3037012,14.6332255 C19.8081767,14.6332255 21.3612962,13.3921513 21.7726908,11.8612087 L24.394262,2.10542864 C24.7036052,0.954254743 24.039266,0.0210439123 22.9104189,0.0210439123 L6.81161169,0.0210439123 L5.80016831,0.0210439123 C4.6713212,0.0210439123 3.50252912,0.954254743 3.18959815,2.10542864 L0.537621931,11.8612087 C0.121455992,13.3921513 1.00370517,14.6332255 2.50818063,14.6332255 L2.84605273,14.6332255 L3.09098431,13.7307084 L2.75315695,13.7307084 C1.73864506,13.7307084 1.1436398,12.8937049 1.4241755,11.8612087 L4.07488232,2.10542864 C4.25223248,1.45270117 4.91494963,0.923561012 5.55510252,0.923561012 L22.6676235,0.923561012 C23.3077763,0.923561012 23.6844635,1.45270117 23.5089778,2.10542864 L20.8861372,11.8612087 C20.6085507,12.8937049 19.561098,13.7307084 18.5465861,13.7307084 L18.2509872,13.7307084 Z" id="Rectangle-11"></path><path d="M15.3762188,7.27872759 L16.4023947,8.68898372 C16.5709477,8.92054673 16.4697298,9.29598454 16.1762898,9.52754755 L14.3434515,10.9736191 C14.0498977,11.2051821 13.675263,11.2051821 13.50671,10.9736191 L12.4805341,9.56336295 C12.3120925,9.33179994 12.413539,8.95636213 12.7070929,8.72479912 L14.5399312,7.27872759 C14.8333712,7.04716458 15.2077772,7.04716458 15.3762188,7.27872759 Z" id="Rectangle-10"></path><path d="M13.8802164,12.8227612 L14.9075374,14.2330173 C15.0762785,14.4645803 14.9750606,14.8400182 14.6814325,15.0715812 L12.84742,16.5176527 C12.5536781,16.7492157 12.1787386,16.7492157 12.0099976,16.5176527 L10.9826766,15.1073966 C10.8140469,14.8758336 10.9154934,14.5003957 11.2092353,14.2688327 L13.0432478,12.8227612 C13.3368759,12.5911982 13.7115868,12.5911982 13.8802164,12.8227612 Z" id="Rectangle-10-Copy-2"></path><path d="M17.4502046,10.0722329 L18.4775429,11.482489 C18.6462868,11.714052 18.5452247,12.0894899 18.2517861,12.3210529 L16.4189564,13.7671244 C16.125404,13.9986874 15.7506157,13.9986874 15.5818719,13.7671244 L14.5545335,12.3568683 C14.385901,12.1253053 14.4871917,11.7498674 14.7807441,11.5183044 L16.6135738,10.0722329 C16.9070124,9.84066989 17.281572,9.84066989 17.4502046,10.0722329 Z" id="Rectangle-10-Copy-3"></path><path d="M9.83633853,7.17285949 L12.9681813,11.4793194 C13.1367378,11.7108825 13.0353722,12.0863203 12.7417463,12.3178833 L7.17420981,16.7062845 C6.88027061,16.9378475 6.50532072,16.9378475 6.33676423,16.7062845 L3.20492142,12.3998245 C3.03667276,12.1682615 3.13858813,11.7928237 3.43252733,11.5612607 L9.00006387,7.17285949 C9.29368968,6.94129648 9.66808987,6.94129648 9.83633853,7.17285949 Z M9.05413911,9.95025884 C8.88579729,9.71869583 8.51124438,9.71869583 8.21752333,9.95025884 L6.21258071,11.5305794 C5.91873675,11.7621425 5.81697411,12.1375803 5.98531594,12.3691433 L7.1070121,13.9115439 C7.27547425,14.1431069 7.65027046,14.1431069 7.94411442,13.9115439 L9.94905704,12.3312233 C10.2427781,12.0996603 10.3442974,11.7242225 10.1758353,11.4926595 L9.05413911,9.95025884 Z" id="Combined-Shape"></path></g><path d="M220.397727,131.380531 C220.397727,130.956121 220.494679,130.570094 220.688585,130.222439 C220.882491,129.874784 221.157563,129.60163 221.51381,129.40297 C221.870056,129.20431 222.278154,129.104981 222.738118,129.104981 C223.2071,129.104981 223.621963,129.20431 223.982719,129.40297 C224.343474,129.60163 224.623056,129.874784 224.821472,130.222439 C225.019887,130.570094 225.119093,130.956121 225.119093,131.380531 C225.119093,131.795911 225.019887,132.175166 224.821472,132.518306 C224.623056,132.861446 224.343474,133.132343 223.982719,133.331003 C223.621963,133.529663 223.2071,133.628991 222.738118,133.628991 C222.278154,133.628991 221.870056,133.529663 221.51381,133.331003 C221.157563,133.132343 220.882491,132.861446 220.688585,132.518306 C220.494679,132.175166 220.397727,131.795911 220.397727,131.380531 Z M227.608295,129.240431 L228.785255,129.240431 L223.008683,138.274906 L221.845252,138.274906 L227.608295,129.240431 Z M223.671569,131.380531 C223.671569,131.055451 223.583636,130.802615 223.407767,130.622014 C223.231899,130.441414 223.008685,130.351116 222.738118,130.351116 C222.467551,130.351116 222.248846,130.441414 222.081997,130.622014 C221.915147,130.802615 221.831724,131.055451 221.831724,131.380531 C221.831724,131.696581 221.915147,131.942645 222.081997,132.11873 C222.248846,132.294816 222.467551,132.382857 222.738118,132.382857 C223.008685,132.382857 223.231899,132.294816 223.407767,132.11873 C223.583636,131.942645 223.671569,131.696581 223.671569,131.380531 Z M225.497885,136.188985 C225.497885,135.764575 225.594837,135.378548 225.788743,135.030893 C225.982649,134.683238 226.257721,134.410084 226.613967,134.211424 C226.970214,134.012764 227.378312,133.913435 227.838276,133.913435 C228.307258,133.913435 228.719866,134.012764 229.076112,134.211424 C229.432359,134.410084 229.709685,134.683238 229.908101,135.030893 C230.106517,135.378548 230.205723,135.764575 230.205723,136.188985 C230.205723,136.604365 230.106517,136.98362 229.908101,137.32676 C229.709685,137.6699 229.432359,137.940797 229.076112,138.139457 C228.719866,138.338117 228.307258,138.437445 227.838276,138.437445 C227.378312,138.437445 226.970214,138.338117 226.613967,138.139457 C226.257721,137.940797 225.982649,137.6699 225.788743,137.32676 C225.594837,136.98362 225.497885,136.604365 225.497885,136.188985 Z M228.771726,136.188985 C228.771726,135.863905 228.683793,135.611069 228.507925,135.430468 C228.332057,135.249868 228.108842,135.15957 227.838276,135.15957 C227.567709,135.15957 227.349004,135.249868 227.182155,135.430468 C227.015305,135.611069 226.931882,135.863905 226.931882,136.188985 C226.931882,136.514065 227.015305,136.762387 227.182155,136.933957 C227.349004,137.105527 227.567709,137.191311 227.838276,137.191311 C228.117861,137.191311 228.34333,137.10327 228.514689,136.927184 C228.686048,136.751099 228.771726,136.505035 228.771726,136.188985 Z" id="%" fill="#FFFFFF"></path><path d="M151.875,131.380531 C151.875,130.956121 151.971952,130.570094 152.165858,130.222439 C152.359764,129.874784 152.634836,129.60163 152.991082,129.40297 C153.347328,129.20431 153.755427,129.104981 154.215391,129.104981 C154.684373,129.104981 155.099236,129.20431 155.459992,129.40297 C155.820747,129.60163 156.100329,129.874784 156.298744,130.222439 C156.49716,130.570094 156.596366,130.956121 156.596366,131.380531 C156.596366,131.795911 156.49716,132.175166 156.298744,132.518306 C156.100329,132.861446 155.820747,133.132343 155.459992,133.331003 C155.099236,133.529663 154.684373,133.628991 154.215391,133.628991 C153.755427,133.628991 153.347328,133.529663 152.991082,133.331003 C152.634836,133.132343 152.359764,132.861446 152.165858,132.518306 C151.971952,132.175166 151.875,131.795911 151.875,131.380531 Z M159.085568,129.240431 L160.262527,129.240431 L154.485956,138.274906 L153.322525,138.274906 L159.085568,129.240431 Z M155.148841,131.380531 C155.148841,131.055451 155.060908,130.802615 154.88504,130.622014 C154.709172,130.441414 154.485957,130.351116 154.215391,130.351116 C153.944824,130.351116 153.726119,130.441414 153.55927,130.622014 C153.39242,130.802615 153.308997,131.055451 153.308997,131.380531 C153.308997,131.696581 153.39242,131.942645 153.55927,132.11873 C153.726119,132.294816 153.944824,132.382857 154.215391,132.382857 C154.485957,132.382857 154.709172,132.294816 154.88504,132.11873 C155.060908,131.942645 155.148841,131.696581 155.148841,131.380531 Z M156.975158,136.188985 C156.975158,135.764575 157.072109,135.378548 157.266016,135.030893 C157.459922,134.683238 157.734994,134.410084 158.09124,134.211424 C158.447486,134.012764 158.855585,133.913435 159.315548,133.913435 C159.784531,133.913435 160.197139,134.012764 160.553385,134.211424 C160.909631,134.410084 161.186958,134.683238 161.385374,135.030893 C161.583789,135.378548 161.682996,135.764575 161.682996,136.188985 C161.682996,136.604365 161.583789,136.98362 161.385374,137.32676 C161.186958,137.6699 160.909631,137.940797 160.553385,138.139457 C160.197139,138.338117 159.784531,138.437445 159.315548,138.437445 C158.855585,138.437445 158.447486,138.338117 158.09124,138.139457 C157.734994,137.940797 157.459922,137.6699 157.266016,137.32676 C157.072109,136.98362 156.975158,136.604365 156.975158,136.188985 Z M160.248999,136.188985 C160.248999,135.863905 160.161066,135.611069 159.985198,135.430468 C159.809329,135.249868 159.586115,135.15957 159.315548,135.15957 C159.044982,135.15957 158.826277,135.249868 158.659427,135.430468 C158.492578,135.611069 158.409154,135.863905 158.409154,136.188985 C158.409154,136.514065 158.492578,136.762387 158.659427,136.933957 C158.826277,137.105527 159.044982,137.191311 159.315548,137.191311 C159.595134,137.191311 159.820603,137.10327 159.991962,136.927184 C160.163321,136.751099 160.248999,136.505035 160.248999,136.188985 Z" id="%-copy" fill="#FFFFFF"></path><path d="M130.434774,73.5934687 L131.075436,76.1694086 C131.097277,76.2568109 131.164417,76.3247905 131.250162,76.3482596 L133.809574,77.0507151 C134.016657,77.1073647 134.057912,77.3841386 133.874288,77.4990565 L131.623881,78.9047767 C131.547843,78.951715 131.503353,79.0358802 131.507397,79.1257103 L131.631162,81.7777225 C131.640869,81.9929911 131.390104,82.116811 131.225894,81.9784241 L129.193087,80.2708422 C129.125138,80.2141926 129.031303,80.1971977 128.947176,80.2295689 L126.463802,81.1659065 C126.262382,81.2419788 126.067433,81.0412773 126.147515,80.8421943 L127.143292,78.3803629 C127.176457,78.2978163 127.162706,78.2039398 127.106891,78.1335324 L125.448611,76.060965 C125.314331,75.8926347 125.444567,75.6449948 125.65893,75.6603712 L128.306514,75.8465057 C128.395495,75.8521706 128.48124,75.8100881 128.530584,75.7356342 L129.988252,73.5173964 C130.107163,73.3369268 130.383003,73.3846744 130.434774,73.5934687" id="Fill-230" fill="#FFFFFE" transform="translate(129.692596, 77.721316) rotate(-9.000000) translate(-129.692596, -77.721316) "></path><path d="M211.230228,60.793624 L211.87089,63.3695638 C211.892731,63.4569661 211.959871,63.5249457 212.045616,63.5484148 L214.605029,64.2508703 C214.812111,64.3075199 214.853366,64.5842939 214.669742,64.6992117 L212.419336,66.104932 C212.343298,66.1518702 212.298807,66.2360354 212.302852,66.3258655 L212.426616,68.9778778 C212.436323,69.1931464 212.185559,69.3169663 212.021349,69.1785793 L209.988541,67.4709975 C209.920592,67.4143478 209.826758,67.3973529 209.742631,67.4297241 L207.259256,68.3660617 C207.057836,68.4421341 206.862887,68.2414325 206.94297,68.0423495 L207.938746,65.5805182 C207.971912,65.4979716 207.95816,65.404095 207.902345,65.3336876 L206.244066,63.2611203 C206.109786,63.0927899 206.240021,62.8451501 206.454384,62.8605264 L209.101969,63.0466609 C209.190949,63.0523259 209.276695,63.0102433 209.326038,62.9357895 L210.783706,60.7175516 C210.902617,60.5370821 211.178458,60.5848296 211.230228,60.793624" id="Fill-230-Copy" fill="#FFFFFE" transform="translate(210.488051, 64.921471) rotate(-9.000000) translate(-210.488051, -64.921471) "></path><g id="Group-3" transform="translate(248.522727, 24.146254)" fill="#FFFFFE"><path d="M4.21885431,0.875339155 L4.36122365,8.5003801 C4.3685039,8.92120596 4.71633808,9.25624809 5.13697476,9.24896456 C5.55761144,9.24087176 5.89250295,8.89288114 5.88441378,8.47205528 L5.74285336,0.847014337 C5.7347642,0.426188473 5.38693002,0.0911463431 4.96629334,0.0992391482 C4.54565666,0.107331953 4.21076515,0.454513291 4.21885431,0.875339155" id="Fill-271"></path><path d="M8.54332295,4.14564169 L0.921709872,4.28807505 C0.501073191,4.29535858 0.16618168,4.6433492 0.174270847,5.06417506 C0.182360014,5.48500092 0.529385276,5.82004306 0.950021956,5.81195025 L8.57163504,5.67032616 C8.99227172,5.66223336 9.32716323,5.31424274 9.31988298,4.89341687 C9.31179381,4.47259101 8.96395963,4.13754888 8.54332295,4.14564169" id="Fill-272"></path></g><g id="Group-3-Copy" transform="translate(79.772727, 184.912304)" fill="#FFFFFE"><path d="M4.21885431,0.875339155 L4.36122365,8.5003801 C4.3685039,8.92120596 4.71633808,9.25624809 5.13697476,9.24896456 C5.55761144,9.24087176 5.89250295,8.89288114 5.88441378,8.47205528 L5.74285336,0.847014337 C5.7347642,0.426188473 5.38693002,0.0911463431 4.96629334,0.0992391482 C4.54565666,0.107331953 4.21076515,0.454513291 4.21885431,0.875339155" id="Fill-271"></path><path d="M8.54332295,4.14564169 L0.921709872,4.28807505 C0.501073191,4.29535858 0.16618168,4.6433492 0.174270847,5.06417506 C0.182360014,5.48500092 0.529385276,5.82004306 0.950021956,5.81195025 L8.57163504,5.67032616 C8.99227172,5.66223336 9.32716323,5.31424274 9.31988298,4.89341687 C9.31179381,4.47259101 8.96395963,4.13754888 8.54332295,4.14564169" id="Fill-272"></path></g><g id="Group-3-Copy-2" transform="translate(77.215909, 13.394384)" fill="#FFFFFE"><path d="M4.21885431,0.875339155 L4.36122365,8.5003801 C4.3685039,8.92120596 4.71633808,9.25624809 5.13697476,9.24896456 C5.55761144,9.24087176 5.89250295,8.89288114 5.88441378,8.47205528 L5.74285336,0.847014337 C5.7347642,0.426188473 5.38693002,0.0911463431 4.96629334,0.0992391482 C4.54565666,0.107331953 4.21076515,0.454513291 4.21885431,0.875339155" id="Fill-271"></path><path d="M8.54332295,4.14564169 L0.921709872,4.28807505 C0.501073191,4.29535858 0.16618168,4.6433492 0.174270847,5.06417506 C0.182360014,5.48500092 0.529385276,5.82004306 0.950021956,5.81195025 L8.57163504,5.67032616 C8.99227172,5.66223336 9.32716323,5.31424274 9.31988298,4.89341687 C9.31179381,4.47259101 8.96395963,4.13754888 8.54332295,4.14564169" id="Fill-272"></path></g><g id="Group-3-Copy-3" transform="translate(290.965909, 114.769155)" fill="#FFFFFE"><path d="M4.21885431,0.875339155 L4.36122365,8.5003801 C4.3685039,8.92120596 4.71633808,9.25624809 5.13697476,9.24896456 C5.55761144,9.24087176 5.89250295,8.89288114 5.88441378,8.47205528 L5.74285336,0.847014337 C5.7347642,0.426188473 5.38693002,0.0911463431 4.96629334,0.0992391482 C4.54565666,0.107331953 4.21076515,0.454513291 4.21885431,0.875339155" id="Fill-271"></path><path d="M8.54332295,4.14564169 L0.921709872,4.28807505 C0.501073191,4.29535858 0.16618168,4.6433492 0.174270847,5.06417506 C0.182360014,5.48500092 0.529385276,5.82004306 0.950021956,5.81195025 L8.57163504,5.67032616 C8.99227172,5.66223336 9.32716323,5.31424274 9.31988298,4.89341687 C9.31179381,4.47259101 8.96395963,4.13754888 8.54332295,4.14564169" id="Fill-272"></path></g><g id="Group-274" transform="translate(180.000000, 15.442360)"><path d="M28.5237068,14.5770743 C28.5237068,22.4181931 22.1704751,28.7742822 14.3328813,28.7742822 C6.49609637,28.7742822 0.142055749,22.4181931 0.142055749,14.5770743 C0.142055749,6.73676475 6.49609637,0.379866361 14.3328813,0.379866361 C22.1704751,0.379866361 28.5237068,6.73676475 28.5237068,14.5770743" id="Fill-179" fill="#B359C0"></path><path d="M4.99555591,14.3982233 C4.99555591,14.2768312 5.02872149,14.1748619 5.09343483,14.0923153 C5.15895708,14.0097687 5.2519825,13.9288406 5.37412892,13.8503404 L9.67999248,10.9393584 L9.76492873,10.9069872 L9.82397965,10.900513 C9.90163565,10.900513 9.9671579,10.9264099 10.0189286,10.9790132 C10.0715082,11.0308071 10.0973935,11.0955496 10.0973935,11.1740498 L10.0973935,11.7615874 C10.0973935,11.8918816 10.0520942,12.0059901 9.96068657,12.1006759 C9.86847007,12.1969803 9.77544465,12.2754805 9.67999248,12.3353673 L6.23481628,14.6725694 L9.67999248,17.0089622 C9.77544465,17.0704675 9.86847007,17.1489678 9.96068657,17.2444629 C10.0520942,17.339958 10.0973935,17.4532572 10.0973935,17.5835514 L10.0973935,18.171089 C10.0973935,18.2503985 10.0715082,18.315141 10.0189286,18.3669349 C9.9671579,18.4195382 9.90163565,18.4454351 9.82397965,18.4454351 L9.76492873,18.4381516 L9.67999248,18.4057804 L5.37412892,15.4947984 C5.2519825,15.4171075 5.15895708,15.3361794 5.09343483,15.2536328 C5.02872149,15.1710862 4.99555591,15.0691169 4.99555591,14.9469155 L4.99555591,14.3982233" id="Fill-180" fill="#FFFFFE"></path><path d="M17.1301152,19.4254738 L17.1551916,19.5428195 C17.1551916,19.6213197 17.1276885,19.68849 17.0702554,19.7451396 C17.0136312,19.8017893 16.9473,19.8301141 16.8680262,19.8301141 L16.4773194,19.8301141 C16.3034024,19.8301141 16.1731668,19.7856036 16.0858038,19.6990106 C15.9984408,19.6124176 15.937772,19.5250153 15.9029886,19.4384223 L11.4927748,8.87812097 L11.4668895,8.75996601 C11.4668895,8.68227509 11.4952015,8.6151048 11.5518257,8.55764589 C11.607641,8.50180553 11.674781,8.47267143 11.7540549,8.47267143 L12.1843986,8.47267143 C12.3494176,8.47267143 12.4764175,8.51475402 12.5621627,8.59730063 C12.6495257,8.67984724 12.7150479,8.7688681 12.7587294,8.8643632 L17.1301152,19.4254738" id="Fill-181" fill="#FFFFFE"></path><path d="M23.0400606,14.9469155 C23.0400606,15.0691169 23.0077039,15.1710862 22.9421817,15.2536328 C22.8774683,15.3361794 22.7828251,15.4171075 22.6622965,15.4947984 L18.3564329,18.4057804 L18.2706878,18.4381516 L18.2124458,18.4454351 C18.1339808,18.4454351 18.0684586,18.4195382 18.0166879,18.3669349 C17.9641083,18.315141 17.938223,18.2503985 17.938223,18.171089 L17.938223,17.5835514 C17.938223,17.4532572 17.9843312,17.339958 18.0749299,17.2444629 C18.1663375,17.1489678 18.2601718,17.0704675 18.3564329,17.0089622 L21.8008002,14.6725694 L18.3564329,12.3353673 C18.2601718,12.2754805 18.1663375,12.1969803 18.0749299,12.1006759 C17.9843312,12.0059901 17.938223,11.8918816 17.938223,11.7615874 L17.938223,11.1740498 C17.938223,11.0955496 17.9641083,11.0308071 18.0166879,10.9790132 C18.0684586,10.9264099 18.1339808,10.900513 18.2124458,10.900513 L18.2706878,10.9069872 L18.3564329,10.9393584 L22.6622965,13.8503404 C22.7828251,13.9288406 22.8774683,14.0097687 22.9421817,14.0923153 C23.0077039,14.1748619 23.0400606,14.2768312 23.0400606,14.3982233 L23.0400606,14.9469155" id="Fill-182" fill="#FFFFFE"></path></g></g></g></svg>